<?xml version="1.0" encoding="UTF-8"?><svg id="Layer_1" xmlns="http://www.w3.org/2000/svg" xmlns:xlink="http://www.w3.org/1999/xlink" viewBox="0 0 1284 1482.64"><defs><style>.cls-1{fill:#009245;}.cls-1,.cls-2,.cls-3,.cls-4,.cls-5,.cls-6,.cls-7,.cls-8,.cls-9,.cls-10{stroke-width:0px;}.cls-11{letter-spacing:.01em;}.cls-12{stroke:#0071bc;}.cls-12,.cls-13{stroke-linecap:round;stroke-miterlimit:10;}.cls-12,.cls-13,.cls-14{fill:none;stroke-width:5px;}.cls-2{fill:#b3b3b3;}.cls-3,.cls-15{fill:#4d4d4d;}.cls-16{letter-spacing:0em;}.cls-4{fill:#999;filter:url(#drop-shadow-1);}.cls-17{letter-spacing:0em;}.cls-15{font-family:MyriadPro-Regular, 'Myriad Pro';font-size:140px;}.cls-18{filter:url(#drop-shadow-2);}.cls-19{filter:url(#drop-shadow-3);}.cls-5{fill:#93278f;}.cls-20{letter-spacing:0em;}.cls-6{fill:#000;}.cls-7,.cls-8{fill:#f7931e;}.cls-21{letter-spacing:0em;}.cls-22{letter-spacing:0em;}.cls-13{stroke:#009245;}.cls-8{opacity:.6;}.cls-9{fill:#fff;}.cls-14{stroke:#93278f;stroke-linejoin:round;}.cls-10{fill:#0071bc;}</style><filter id="drop-shadow-1" filterUnits="userSpaceOnUse"><feOffset dx="11" dy="-1"/><feGaussianBlur result="blur" stdDeviation="6"/><feFlood flood-color="#000" flood-opacity=".75"/><feComposite in2="blur" operator="in"/><feComposite in="SourceGraphic"/></filter><filter id="drop-shadow-2" filterUnits="userSpaceOnUse"><feOffset dx="11" dy="-1"/><feGaussianBlur result="blur-2" stdDeviation="6"/><feFlood flood-color="#000" flood-opacity=".75"/><feComposite in2="blur-2" operator="in"/><feComposite in="SourceGraphic"/></filter><filter id="drop-shadow-3" filterUnits="userSpaceOnUse"><feOffset dx="11" dy="-1"/><feGaussianBlur result="blur-3" stdDeviation="6"/><feFlood flood-color="#000" flood-opacity=".75"/><feComposite in2="blur-3" operator="in"/><feComposite in="SourceGraphic"/></filter></defs><polygon class="cls-2" points="12.5 1104.76 12.5 377.88 642 14.43 1271.5 377.88 1271.5 1104.76 642 1468.2 12.5 1104.76"/><path class="cls-3" d="M642,28.87l617,356.22v712.45l-617,356.23L25,1097.54V385.09L642,28.87M642,0L0,370.66v741.32l642,370.66,642-370.66V370.66L642,0h0Z"/><path class="cls-4" d="M369.5,741.23s132.81,82,133.1,118-94.6,150-94.6,150h468s-94.89-114-94.6-150,133.1-118,133.1-118H369.5Z"/><g class="cls-18"><rect class="cls-9" x="370" y="468.73" width="77" height="272"/><path class="cls-6" d="M446.5,469.23v271h-76v-271h76M447.5,468.23h-78v273h78v-273h0Z"/><rect class="cls-9" x="448" y="468.73" width="77" height="272"/><path class="cls-6" d="M524.5,469.23v271h-76v-271h76M525.5,468.23h-78v273h78v-273h0Z"/><rect class="cls-7" x="526" y="468.73" width="77" height="272"/><path class="cls-6" d="M602.5,469.23v271h-76v-271h76M603.5,468.23h-78v273h78v-273h0Z"/><rect class="cls-9" x="604" y="468.73" width="77" height="272"/><path class="cls-6" d="M680.5,469.23v271h-76v-271h76M681.5,468.23h-78v273h78v-273h0Z"/><rect class="cls-7" x="682" y="468.73" width="77" height="272"/><path class="cls-6" d="M758.5,469.23v271h-76v-271h76M759.5,468.23h-78v273h78v-273h0Z"/><rect class="cls-7" x="760" y="468.73" width="77" height="272"/><path class="cls-6" d="M836.5,469.23v271h-76v-271h76M837.5,468.23h-78v273h78v-273h0Z"/><rect class="cls-7" x="837" y="468.73" width="77" height="272"/><path class="cls-6" d="M913.5,469.23v271h-76v-271h76M914.5,468.23h-78v273h78v-273h0Z"/></g><g class="cls-19"><rect class="cls-9" x="408.5" y="1009.73" width="77" height="272"/><path class="cls-6" d="M485,1010.23v271h-76v-271h76M486,1009.23h-78v273h78v-273h0Z"/><rect class="cls-9" x="486.5" y="1009.73" width="77" height="272"/><path class="cls-6" d="M563,1010.23v271h-76v-271h76M564,1009.23h-78v273h78v-273h0Z"/><rect class="cls-9" x="564.5" y="1009.73" width="77" height="272"/><path class="cls-6" d="M641,1010.23v271h-76v-271h76M642,1009.23h-78v273h78v-273h0Z"/><rect class="cls-5" x="642.5" y="1009.73" width="77" height="272"/><path class="cls-6" d="M719,1010.23v271h-76v-271h76M720,1009.23h-78v273h78v-273h0Z"/><rect class="cls-10" x="720.5" y="1009.73" width="77" height="272"/><path class="cls-6" d="M797,1010.23v271h-76v-271h76M798,1009.23h-78v273h78v-273h0Z"/><rect class="cls-1" x="798.5" y="1009.73" width="77" height="272"/><path class="cls-6" d="M875,1010.23v271h-76v-271h76M876,1009.23h-78v273h78v-273h0Z"/></g><text class="cls-15" transform="translate(220.75 409.95)"><tspan x="0" y="0">full</tspan><tspan class="cls-11" x="184.1" y="0">R</tspan><tspan class="cls-21" x="261.09" y="0">ank</tspan><tspan class="cls-17" x="471.93" y="0">M</tspan><tspan class="cls-22" x="585.33" y="0">a</tspan><tspan x="652.25" y="0">t</tspan><tspan class="cls-16" x="698.59" y="0">r</tspan><tspan class="cls-20" x="744.93" y="0">ix</tspan></text><polygon class="cls-8" points="564.25 827.23 642.24 782.36 642.24 872.25 564.25 917.48 564.25 827.23"/><polygon class="cls-8" points="720.25 827.23 641.78 782.36 641.78 872.53 720.25 917.48 720.25 827.23"/><polygon class="cls-7" points="642.25 962.23 720.24 917.36 642.25 872.13 563.78 917.36 642.25 962.23"/><line class="cls-14" x1="641.75" y1="803.3" x2="641.75" y2="872.73"/><polygon class="cls-5" points="626.79 807.68 641.75 781.77 656.71 807.68 626.79 807.68"/><line class="cls-13" x1="701.21" y1="906.8" x2="641.75" y2="871.73"/><polygon class="cls-1" points="705.04 891.69 719.75 917.73 689.84 917.46 705.04 891.69"/><line class="cls-12" x1="582.29" y1="906.8" x2="641.75" y2="871.73"/><polygon class="cls-10" points="593.66 917.46 563.75 917.74 578.46 891.69 593.66 917.46"/></svg>